<mxfile host="app.diagrams.net" agent="Mozilla/5.0 (Windows NT 10.0; Win64; x64) AppleWebKit/537.36 (KHTML, like Gecko) Chrome/130.0.0.0 Safari/537.36 Edg/130.0.0.0" version="24.8.4">
  <diagram name="Seite-1" id="UVpIMAXgov2TjOctCtRH">
    <mxGraphModel dx="2771" dy="1168" grid="1" gridSize="10" guides="1" tooltips="1" connect="1" arrows="1" fold="1" page="1" pageScale="1" pageWidth="827" pageHeight="1169" math="0" shadow="0">
      <root>
        <mxCell id="0" />
        <mxCell id="1" parent="0" />
        <mxCell id="NwBf-p2mOLdfekpfjntF-2" value="&lt;b&gt;&lt;u&gt;&lt;font style=&quot;font-size: 20px;&quot;&gt;Cardio Vascukal System&lt;/font&gt;&lt;/u&gt;&lt;/b&gt;" style="text;html=1;align=center;verticalAlign=middle;resizable=0;points=[];autosize=1;strokeColor=none;fillColor=none;" parent="1" vertex="1">
          <mxGeometry x="736" y="88" width="250" height="40" as="geometry" />
        </mxCell>
        <mxCell id="NwBf-p2mOLdfekpfjntF-3" value="Benutzer" style="shape=umlActor;verticalLabelPosition=bottom;verticalAlign=top;html=1;outlineConnect=0;fillColor=#f8cecc;strokeColor=#b85450;" parent="1" vertex="1">
          <mxGeometry x="-780" y="387" width="80" height="122" as="geometry" />
        </mxCell>
        <mxCell id="NwBf-p2mOLdfekpfjntF-16" value="" style="rounded=0;whiteSpace=wrap;html=1;rotation=90;" parent="1" vertex="1">
          <mxGeometry x="-117.13" y="-332.63" width="938.5" height="1922.75" as="geometry" />
        </mxCell>
        <mxCell id="-FrrrJ6dnkbftd-pf9Oq-3" value="" style="edgeStyle=entityRelationEdgeStyle;curved=1;rounded=0;orthogonalLoop=1;jettySize=auto;html=1;startArrow=none;endArrow=classic;segment=10;sourcePerimeterSpacing=0;targetPerimeterSpacing=0;fontSize=12;dashed=1;endFill=1;fillColor=#f8cecc;strokeColor=#b85450;" parent="1" source="NwBf-p2mOLdfekpfjntF-17" target="-FrrrJ6dnkbftd-pf9Oq-2" edge="1">
          <mxGeometry relative="1" as="geometry" />
        </mxCell>
        <mxCell id="-FrrrJ6dnkbftd-pf9Oq-10" value="&amp;lt;includes&amp;gt;" style="edgeLabel;html=1;align=center;verticalAlign=middle;resizable=0;points=[];fontSize=12;" parent="-FrrrJ6dnkbftd-pf9Oq-3" vertex="1" connectable="0">
          <mxGeometry x="-0.0075" y="3" relative="1" as="geometry">
            <mxPoint as="offset" />
          </mxGeometry>
        </mxCell>
        <mxCell id="-FrrrJ6dnkbftd-pf9Oq-24" value="" style="edgeStyle=entityRelationEdgeStyle;curved=1;rounded=0;orthogonalLoop=1;jettySize=auto;html=1;startArrow=none;endArrow=classic;segment=10;sourcePerimeterSpacing=0;targetPerimeterSpacing=0;fontSize=12;startSize=8;endSize=8;dashed=1;endFill=1;fillColor=#f8cecc;strokeColor=#b85450;" parent="1" source="NwBf-p2mOLdfekpfjntF-17" target="-FrrrJ6dnkbftd-pf9Oq-23" edge="1">
          <mxGeometry relative="1" as="geometry" />
        </mxCell>
        <mxCell id="-FrrrJ6dnkbftd-pf9Oq-25" value="&amp;lt;includes&amp;gt;" style="edgeLabel;html=1;align=center;verticalAlign=middle;resizable=0;points=[];fontSize=12;" parent="-FrrrJ6dnkbftd-pf9Oq-24" vertex="1" connectable="0">
          <mxGeometry x="-0.0227" y="-1" relative="1" as="geometry">
            <mxPoint as="offset" />
          </mxGeometry>
        </mxCell>
        <mxCell id="-FrrrJ6dnkbftd-pf9Oq-35" value="" style="edgeStyle=entityRelationEdgeStyle;curved=1;rounded=0;orthogonalLoop=1;jettySize=auto;html=1;startArrow=none;endArrow=classic;segment=10;sourcePerimeterSpacing=0;targetPerimeterSpacing=0;fontSize=12;startSize=8;endSize=8;dashed=1;endFill=1;fillColor=#f8cecc;strokeColor=#b85450;" parent="1" source="NwBf-p2mOLdfekpfjntF-17" target="-FrrrJ6dnkbftd-pf9Oq-34" edge="1">
          <mxGeometry relative="1" as="geometry" />
        </mxCell>
        <mxCell id="-FrrrJ6dnkbftd-pf9Oq-87" value="&amp;lt;includes&amp;gt;" style="edgeLabel;html=1;align=center;verticalAlign=middle;resizable=0;points=[];fontSize=12;" parent="-FrrrJ6dnkbftd-pf9Oq-35" vertex="1" connectable="0">
          <mxGeometry x="-0.0104" relative="1" as="geometry">
            <mxPoint as="offset" />
          </mxGeometry>
        </mxCell>
        <mxCell id="-FrrrJ6dnkbftd-pf9Oq-41" value="" style="edgeStyle=entityRelationEdgeStyle;curved=1;rounded=0;orthogonalLoop=1;jettySize=auto;html=1;startArrow=none;endArrow=classic;segment=10;sourcePerimeterSpacing=0;targetPerimeterSpacing=0;fontSize=12;startSize=8;endSize=8;dashed=1;endFill=1;fillColor=#f8cecc;strokeColor=#b85450;" parent="1" source="NwBf-p2mOLdfekpfjntF-17" target="-FrrrJ6dnkbftd-pf9Oq-40" edge="1">
          <mxGeometry relative="1" as="geometry" />
        </mxCell>
        <mxCell id="-FrrrJ6dnkbftd-pf9Oq-88" value="&amp;lt;includes&amp;gt;" style="edgeLabel;html=1;align=center;verticalAlign=middle;resizable=0;points=[];fontSize=12;" parent="-FrrrJ6dnkbftd-pf9Oq-41" vertex="1" connectable="0">
          <mxGeometry x="0.0019" y="-1" relative="1" as="geometry">
            <mxPoint as="offset" />
          </mxGeometry>
        </mxCell>
        <mxCell id="-FrrrJ6dnkbftd-pf9Oq-43" value="" style="edgeStyle=entityRelationEdgeStyle;curved=1;rounded=0;orthogonalLoop=1;jettySize=auto;html=1;startArrow=none;endArrow=classic;segment=10;sourcePerimeterSpacing=0;targetPerimeterSpacing=0;fontSize=12;startSize=8;endSize=8;dashed=1;endFill=1;fillColor=#f8cecc;strokeColor=#b85450;" parent="1" source="NwBf-p2mOLdfekpfjntF-17" target="-FrrrJ6dnkbftd-pf9Oq-42" edge="1">
          <mxGeometry relative="1" as="geometry" />
        </mxCell>
        <mxCell id="-FrrrJ6dnkbftd-pf9Oq-89" value="&amp;lt;includes&amp;gt;" style="edgeLabel;html=1;align=center;verticalAlign=middle;resizable=0;points=[];fontSize=12;" parent="-FrrrJ6dnkbftd-pf9Oq-43" vertex="1" connectable="0">
          <mxGeometry x="-0.0036" y="3" relative="1" as="geometry">
            <mxPoint as="offset" />
          </mxGeometry>
        </mxCell>
        <mxCell id="-FrrrJ6dnkbftd-pf9Oq-58" value="" style="edgeStyle=entityRelationEdgeStyle;curved=1;rounded=0;orthogonalLoop=1;jettySize=auto;html=1;startArrow=none;endArrow=classic;segment=10;sourcePerimeterSpacing=0;targetPerimeterSpacing=0;fontSize=12;startSize=8;endSize=8;dashed=1;endFill=1;fillColor=#f8cecc;strokeColor=#b85450;" parent="1" source="NwBf-p2mOLdfekpfjntF-17" target="-FrrrJ6dnkbftd-pf9Oq-57" edge="1">
          <mxGeometry relative="1" as="geometry" />
        </mxCell>
        <mxCell id="-FrrrJ6dnkbftd-pf9Oq-90" value="&amp;lt;includes&amp;gt;" style="edgeLabel;html=1;align=center;verticalAlign=middle;resizable=0;points=[];fontSize=12;" parent="-FrrrJ6dnkbftd-pf9Oq-58" vertex="1" connectable="0">
          <mxGeometry x="-0.0003" y="1" relative="1" as="geometry">
            <mxPoint as="offset" />
          </mxGeometry>
        </mxCell>
        <mxCell id="-FrrrJ6dnkbftd-pf9Oq-62" value="" style="edgeStyle=entityRelationEdgeStyle;curved=1;rounded=0;orthogonalLoop=1;jettySize=auto;html=1;startArrow=none;endArrow=classic;segment=10;sourcePerimeterSpacing=0;targetPerimeterSpacing=0;fontSize=12;startSize=8;endSize=8;dashed=1;endFill=1;fillColor=#f8cecc;strokeColor=#b85450;" parent="1" source="NwBf-p2mOLdfekpfjntF-17" target="-FrrrJ6dnkbftd-pf9Oq-61" edge="1">
          <mxGeometry relative="1" as="geometry" />
        </mxCell>
        <mxCell id="-FrrrJ6dnkbftd-pf9Oq-66" value="&amp;lt;includes&amp;gt;" style="edgeLabel;html=1;align=center;verticalAlign=middle;resizable=0;points=[];fontSize=12;" parent="-FrrrJ6dnkbftd-pf9Oq-62" vertex="1" connectable="0">
          <mxGeometry x="0.5455" y="2" relative="1" as="geometry">
            <mxPoint as="offset" />
          </mxGeometry>
        </mxCell>
        <mxCell id="-FrrrJ6dnkbftd-pf9Oq-65" style="edgeStyle=entityRelationEdgeStyle;curved=1;rounded=0;orthogonalLoop=1;jettySize=auto;html=1;startArrow=none;endArrow=classic;segment=10;sourcePerimeterSpacing=0;targetPerimeterSpacing=0;fontSize=12;startSize=8;endSize=8;dashed=1;endFill=1;fillColor=#f8cecc;strokeColor=#b85450;" parent="1" source="NwBf-p2mOLdfekpfjntF-17" target="-FrrrJ6dnkbftd-pf9Oq-63" edge="1">
          <mxGeometry relative="1" as="geometry" />
        </mxCell>
        <mxCell id="-FrrrJ6dnkbftd-pf9Oq-67" value="&amp;lt;includes&amp;gt;" style="edgeLabel;html=1;align=center;verticalAlign=middle;resizable=0;points=[];fontSize=12;" parent="-FrrrJ6dnkbftd-pf9Oq-65" vertex="1" connectable="0">
          <mxGeometry x="0.7234" y="2" relative="1" as="geometry">
            <mxPoint as="offset" />
          </mxGeometry>
        </mxCell>
        <mxCell id="-FrrrJ6dnkbftd-pf9Oq-106" value="" style="edgeStyle=entityRelationEdgeStyle;curved=1;rounded=0;orthogonalLoop=1;jettySize=auto;html=1;startArrow=none;endArrow=classic;segment=10;sourcePerimeterSpacing=0;targetPerimeterSpacing=0;fontSize=12;startSize=8;endSize=8;dashed=1;endFill=1;fillColor=#f8cecc;strokeColor=#b85450;" parent="1" source="NwBf-p2mOLdfekpfjntF-17" target="-FrrrJ6dnkbftd-pf9Oq-105" edge="1">
          <mxGeometry relative="1" as="geometry" />
        </mxCell>
        <mxCell id="-FrrrJ6dnkbftd-pf9Oq-107" value="&amp;lt;includes&amp;gt;" style="edgeLabel;html=1;align=center;verticalAlign=middle;resizable=0;points=[];fontSize=12;" parent="-FrrrJ6dnkbftd-pf9Oq-106" vertex="1" connectable="0">
          <mxGeometry x="-0.0034" relative="1" as="geometry">
            <mxPoint as="offset" />
          </mxGeometry>
        </mxCell>
        <mxCell id="-FrrrJ6dnkbftd-pf9Oq-111" style="edgeStyle=entityRelationEdgeStyle;curved=1;rounded=0;orthogonalLoop=1;jettySize=auto;html=1;startArrow=none;endArrow=classic;segment=10;sourcePerimeterSpacing=0;targetPerimeterSpacing=0;fontSize=12;startSize=8;endSize=8;dashed=1;endFill=1;fillColor=#f8cecc;strokeColor=#b85450;" parent="1" source="NwBf-p2mOLdfekpfjntF-17" target="-FrrrJ6dnkbftd-pf9Oq-110" edge="1">
          <mxGeometry relative="1" as="geometry" />
        </mxCell>
        <mxCell id="-FrrrJ6dnkbftd-pf9Oq-114" value="&amp;lt;includes&amp;gt;" style="edgeLabel;html=1;align=center;verticalAlign=middle;resizable=0;points=[];fontSize=12;" parent="-FrrrJ6dnkbftd-pf9Oq-111" vertex="1" connectable="0">
          <mxGeometry x="-0.1021" y="3" relative="1" as="geometry">
            <mxPoint y="-1" as="offset" />
          </mxGeometry>
        </mxCell>
        <mxCell id="NwBf-p2mOLdfekpfjntF-17" value="&lt;font style=&quot;font-size: 11px;&quot;&gt;&lt;b&gt;Profil&amp;nbsp;&lt;/b&gt;&lt;/font&gt;&lt;div style=&quot;font-size: 11px;&quot;&gt;&lt;font style=&quot;font-size: 11px;&quot;&gt;Parameter&lt;/font&gt;&lt;div&gt;&lt;font style=&quot;font-size: 11px;&quot;&gt;ausfüllen&lt;/font&gt;&lt;/div&gt;&lt;/div&gt;" style="ellipse;whiteSpace=wrap;html=1;align=center;newEdgeStyle={&quot;edgeStyle&quot;:&quot;entityRelationEdgeStyle&quot;,&quot;startArrow&quot;:&quot;none&quot;,&quot;endArrow&quot;:&quot;none&quot;,&quot;segment&quot;:10,&quot;curved&quot;:1,&quot;sourcePerimeterSpacing&quot;:0,&quot;targetPerimeterSpacing&quot;:0};treeFolding=1;treeMoving=1;fillColor=#ffe6cc;strokeColor=#d79b00;" parent="1" vertex="1">
          <mxGeometry x="445" y="413" width="116" height="70" as="geometry" />
        </mxCell>
        <mxCell id="-FrrrJ6dnkbftd-pf9Oq-2" value="Speicher" style="ellipse;whiteSpace=wrap;html=1;align=center;newEdgeStyle={&quot;edgeStyle&quot;:&quot;entityRelationEdgeStyle&quot;,&quot;startArrow&quot;:&quot;none&quot;,&quot;endArrow&quot;:&quot;none&quot;,&quot;segment&quot;:10,&quot;curved&quot;:1,&quot;sourcePerimeterSpacing&quot;:0,&quot;targetPerimeterSpacing&quot;:0};treeFolding=1;treeMoving=1;fillColor=#fff2cc;strokeColor=#d6b656;" parent="1" vertex="1">
          <mxGeometry x="435" y="588" width="94" height="45" as="geometry" />
        </mxCell>
        <mxCell id="-FrrrJ6dnkbftd-pf9Oq-27" value="" style="edgeStyle=entityRelationEdgeStyle;curved=1;rounded=0;orthogonalLoop=1;jettySize=auto;html=1;startArrow=openThin;endArrow=none;segment=10;sourcePerimeterSpacing=0;targetPerimeterSpacing=0;fontSize=12;startSize=8;endSize=8;dashed=1;startFill=0;fillColor=#f8cecc;strokeColor=#b85450;" parent="1" source="-FrrrJ6dnkbftd-pf9Oq-23" target="-FrrrJ6dnkbftd-pf9Oq-26" edge="1">
          <mxGeometry relative="1" as="geometry" />
        </mxCell>
        <mxCell id="-FrrrJ6dnkbftd-pf9Oq-28" value="&amp;lt;extends&amp;gt;" style="edgeLabel;html=1;align=center;verticalAlign=middle;resizable=0;points=[];fontSize=12;" parent="-FrrrJ6dnkbftd-pf9Oq-27" vertex="1" connectable="0">
          <mxGeometry x="0.1068" y="-1" relative="1" as="geometry">
            <mxPoint x="-1" as="offset" />
          </mxGeometry>
        </mxCell>
        <mxCell id="-FrrrJ6dnkbftd-pf9Oq-23" value="&lt;font style=&quot;font-size: 11px;&quot;&gt;AGB&#39;s&lt;/font&gt;&lt;div style=&quot;font-size: 11px;&quot;&gt;&lt;font style=&quot;font-size: 11px;&quot;&gt;durchlesen&lt;br&gt;&lt;/font&gt;&lt;div style=&quot;&quot;&gt;&lt;hr style=&quot;&quot;&gt;&lt;div style=&quot;font-size: 12px;&quot;&gt;&lt;b&gt;extension point&lt;/b&gt;&lt;/div&gt;&lt;div style=&quot;font-size: 12px;&quot;&gt;Checkboxen bestätigen&lt;/div&gt;&lt;/div&gt;&lt;/div&gt;" style="ellipse;whiteSpace=wrap;html=1;align=center;newEdgeStyle={&quot;edgeStyle&quot;:&quot;entityRelationEdgeStyle&quot;,&quot;startArrow&quot;:&quot;none&quot;,&quot;endArrow&quot;:&quot;none&quot;,&quot;segment&quot;:10,&quot;curved&quot;:1,&quot;sourcePerimeterSpacing&quot;:0,&quot;targetPerimeterSpacing&quot;:0};treeFolding=1;treeMoving=1;fillColor=#ffe6cc;strokeColor=#d79b00;" parent="1" vertex="1">
          <mxGeometry x="445" y="966.5" width="150" height="115" as="geometry" />
        </mxCell>
        <mxCell id="-FrrrJ6dnkbftd-pf9Oq-108" style="edgeStyle=entityRelationEdgeStyle;curved=1;rounded=0;orthogonalLoop=1;jettySize=auto;html=1;startArrow=none;endArrow=classic;segment=10;sourcePerimeterSpacing=0;targetPerimeterSpacing=0;fontSize=12;startSize=8;endSize=8;dashed=1;endFill=1;fillColor=#f8cecc;strokeColor=#b85450;" parent="1" source="-FrrrJ6dnkbftd-pf9Oq-26" target="-FrrrJ6dnkbftd-pf9Oq-105" edge="1">
          <mxGeometry relative="1" as="geometry" />
        </mxCell>
        <mxCell id="-FrrrJ6dnkbftd-pf9Oq-109" value="&amp;lt;extends&amp;gt;" style="edgeLabel;html=1;align=center;verticalAlign=middle;resizable=0;points=[];fontSize=12;" parent="-FrrrJ6dnkbftd-pf9Oq-108" vertex="1" connectable="0">
          <mxGeometry x="0.0326" y="1" relative="1" as="geometry">
            <mxPoint y="1" as="offset" />
          </mxGeometry>
        </mxCell>
        <mxCell id="-FrrrJ6dnkbftd-pf9Oq-26" value="Tab-Control&lt;div&gt;nächste Seite&lt;br&gt;&lt;div&gt;&lt;span style=&quot;font-size: 11px;&quot;&gt;sperren!&lt;/span&gt;&lt;/div&gt;&lt;/div&gt;" style="ellipse;whiteSpace=wrap;html=1;align=center;newEdgeStyle={&quot;edgeStyle&quot;:&quot;entityRelationEdgeStyle&quot;,&quot;startArrow&quot;:&quot;none&quot;,&quot;endArrow&quot;:&quot;none&quot;,&quot;segment&quot;:10,&quot;curved&quot;:1,&quot;sourcePerimeterSpacing&quot;:0,&quot;targetPerimeterSpacing&quot;:0};treeFolding=1;treeMoving=1;fillColor=#fff2cc;strokeColor=#d6b656;" parent="1" vertex="1">
          <mxGeometry x="735" y="896.5" width="110" height="70" as="geometry" />
        </mxCell>
        <mxCell id="qf-HEqE5wMaimyEyIUq_-2" style="edgeStyle=none;curved=1;rounded=0;orthogonalLoop=1;jettySize=auto;html=1;fontSize=12;startSize=8;endSize=8;dashed=1;fillColor=#f8cecc;strokeColor=#b85450;endArrow=none;endFill=0;" parent="1" source="-FrrrJ6dnkbftd-pf9Oq-31" edge="1">
          <mxGeometry relative="1" as="geometry">
            <mxPoint x="685" y="978" as="targetPoint" />
          </mxGeometry>
        </mxCell>
        <mxCell id="qf-HEqE5wMaimyEyIUq_-3" style="edgeStyle=none;curved=1;rounded=0;orthogonalLoop=1;jettySize=auto;html=1;fontSize=12;startSize=8;endSize=8;startArrow=none;startFill=0;dashed=1;endArrow=none;endFill=0;fillColor=#f8cecc;strokeColor=#b85450;" parent="1" source="-FrrrJ6dnkbftd-pf9Oq-31" edge="1">
          <mxGeometry relative="1" as="geometry">
            <mxPoint x="865" y="858" as="targetPoint" />
          </mxGeometry>
        </mxCell>
        <mxCell id="-FrrrJ6dnkbftd-pf9Oq-31" value="&lt;b&gt;Condition&lt;/b&gt;&lt;div&gt;Benutzer muss kästchen setzen&lt;/div&gt;&lt;div&gt;&lt;b&gt;extension point&lt;/b&gt;&lt;/div&gt;&lt;div&gt;Checkboxen bestätigen&lt;/div&gt;&lt;div&gt;&lt;span style=&quot;text-align: center;&quot;&gt;BMI &amp;gt;= 20&lt;/span&gt;&lt;/div&gt;" style="shape=note;whiteSpace=wrap;html=1;backgroundOutline=1;darkOpacity=0.05;align=left;fillColor=#ffbf00;strokeColor=#d6b656;" parent="1" vertex="1">
          <mxGeometry x="1056" y="966.5" width="210" height="76" as="geometry" />
        </mxCell>
        <mxCell id="-FrrrJ6dnkbftd-pf9Oq-45" value="" style="edgeStyle=entityRelationEdgeStyle;curved=1;rounded=0;orthogonalLoop=1;jettySize=auto;html=1;startArrow=none;endArrow=classic;segment=10;sourcePerimeterSpacing=0;targetPerimeterSpacing=0;fontSize=12;startSize=8;endSize=8;dashed=1;endFill=1;fillColor=#f8cecc;strokeColor=#b85450;" parent="1" source="-FrrrJ6dnkbftd-pf9Oq-34" target="-FrrrJ6dnkbftd-pf9Oq-44" edge="1">
          <mxGeometry relative="1" as="geometry" />
        </mxCell>
        <mxCell id="-FrrrJ6dnkbftd-pf9Oq-91" value="&amp;lt;includes&amp;gt;" style="edgeLabel;html=1;align=center;verticalAlign=middle;resizable=0;points=[];fontSize=12;" parent="-FrrrJ6dnkbftd-pf9Oq-45" vertex="1" connectable="0">
          <mxGeometry x="0.0124" relative="1" as="geometry">
            <mxPoint as="offset" />
          </mxGeometry>
        </mxCell>
        <mxCell id="-FrrrJ6dnkbftd-pf9Oq-84" style="edgeStyle=entityRelationEdgeStyle;curved=1;rounded=0;orthogonalLoop=1;jettySize=auto;html=1;startArrow=none;endArrow=classic;segment=10;sourcePerimeterSpacing=0;targetPerimeterSpacing=0;fontSize=12;startSize=8;endSize=8;dashed=1;endFill=1;fillColor=#f8cecc;strokeColor=#b85450;" parent="1" source="-FrrrJ6dnkbftd-pf9Oq-34" target="-FrrrJ6dnkbftd-pf9Oq-77" edge="1">
          <mxGeometry relative="1" as="geometry" />
        </mxCell>
        <mxCell id="-FrrrJ6dnkbftd-pf9Oq-92" value="&amp;lt;includes&amp;gt;" style="edgeLabel;html=1;align=center;verticalAlign=middle;resizable=0;points=[];fontSize=12;" parent="-FrrrJ6dnkbftd-pf9Oq-84" vertex="1" connectable="0">
          <mxGeometry x="0.0097" y="1" relative="1" as="geometry">
            <mxPoint as="offset" />
          </mxGeometry>
        </mxCell>
        <mxCell id="-FrrrJ6dnkbftd-pf9Oq-85" style="edgeStyle=entityRelationEdgeStyle;curved=1;rounded=0;orthogonalLoop=1;jettySize=auto;html=1;startArrow=none;endArrow=classic;segment=10;sourcePerimeterSpacing=0;targetPerimeterSpacing=0;fontSize=12;startSize=8;endSize=8;endFill=1;dashed=1;fillColor=#f8cecc;strokeColor=#b85450;" parent="1" source="-FrrrJ6dnkbftd-pf9Oq-34" target="-FrrrJ6dnkbftd-pf9Oq-73" edge="1">
          <mxGeometry relative="1" as="geometry" />
        </mxCell>
        <mxCell id="-FrrrJ6dnkbftd-pf9Oq-93" value="&amp;lt;includes&amp;gt;" style="edgeLabel;html=1;align=center;verticalAlign=middle;resizable=0;points=[];fontSize=12;" parent="-FrrrJ6dnkbftd-pf9Oq-85" vertex="1" connectable="0">
          <mxGeometry x="-0.0276" y="2" relative="1" as="geometry">
            <mxPoint as="offset" />
          </mxGeometry>
        </mxCell>
        <mxCell id="-FrrrJ6dnkbftd-pf9Oq-34" value="&lt;span style=&quot;font-size: 11px;&quot;&gt;&lt;b&gt;Heart Age&lt;/b&gt;&lt;/span&gt;&lt;br&gt;&lt;div style=&quot;font-size: 11px;&quot;&gt;&lt;font style=&quot;font-size: 11px;&quot;&gt;Parameter&lt;/font&gt;&lt;div&gt;&lt;font style=&quot;font-size: 11px;&quot;&gt;ausfüllen&lt;/font&gt;&lt;/div&gt;&lt;/div&gt;" style="ellipse;whiteSpace=wrap;html=1;align=center;newEdgeStyle={&quot;edgeStyle&quot;:&quot;entityRelationEdgeStyle&quot;,&quot;startArrow&quot;:&quot;none&quot;,&quot;endArrow&quot;:&quot;none&quot;,&quot;segment&quot;:10,&quot;curved&quot;:1,&quot;sourcePerimeterSpacing&quot;:0,&quot;targetPerimeterSpacing&quot;:0};treeFolding=1;treeMoving=1;fillColor=#ffe6cc;strokeColor=#d79b00;" parent="1" vertex="1">
          <mxGeometry x="915" y="208" width="116" height="70" as="geometry" />
        </mxCell>
        <mxCell id="-FrrrJ6dnkbftd-pf9Oq-54" style="edgeStyle=entityRelationEdgeStyle;curved=1;rounded=0;orthogonalLoop=1;jettySize=auto;html=1;startArrow=none;endArrow=classic;segment=10;sourcePerimeterSpacing=0;targetPerimeterSpacing=0;fontSize=12;startSize=8;endSize=8;endFill=1;dashed=1;fillColor=#f8cecc;strokeColor=#b85450;" parent="1" source="-FrrrJ6dnkbftd-pf9Oq-40" target="-FrrrJ6dnkbftd-pf9Oq-49" edge="1">
          <mxGeometry relative="1" as="geometry" />
        </mxCell>
        <mxCell id="-FrrrJ6dnkbftd-pf9Oq-94" value="&amp;lt;includes&amp;gt;" style="edgeLabel;html=1;align=center;verticalAlign=middle;resizable=0;points=[];fontSize=12;" parent="-FrrrJ6dnkbftd-pf9Oq-54" vertex="1" connectable="0">
          <mxGeometry x="0.0124" y="1" relative="1" as="geometry">
            <mxPoint as="offset" />
          </mxGeometry>
        </mxCell>
        <mxCell id="-FrrrJ6dnkbftd-pf9Oq-78" style="edgeStyle=entityRelationEdgeStyle;curved=1;rounded=0;orthogonalLoop=1;jettySize=auto;html=1;startArrow=none;endArrow=classic;segment=10;sourcePerimeterSpacing=0;targetPerimeterSpacing=0;fontSize=12;startSize=8;endSize=8;dashed=1;endFill=1;fillColor=#f8cecc;strokeColor=#b85450;" parent="1" source="-FrrrJ6dnkbftd-pf9Oq-40" target="-FrrrJ6dnkbftd-pf9Oq-76" edge="1">
          <mxGeometry relative="1" as="geometry" />
        </mxCell>
        <mxCell id="-FrrrJ6dnkbftd-pf9Oq-96" value="&amp;lt;includes&amp;gt;" style="edgeLabel;html=1;align=center;verticalAlign=middle;resizable=0;points=[];fontSize=12;" parent="-FrrrJ6dnkbftd-pf9Oq-78" vertex="1" connectable="0">
          <mxGeometry x="-0.0276" y="3" relative="1" as="geometry">
            <mxPoint as="offset" />
          </mxGeometry>
        </mxCell>
        <mxCell id="-FrrrJ6dnkbftd-pf9Oq-79" style="edgeStyle=entityRelationEdgeStyle;curved=1;rounded=0;orthogonalLoop=1;jettySize=auto;html=1;startArrow=none;endArrow=classic;segment=10;sourcePerimeterSpacing=0;targetPerimeterSpacing=0;fontSize=12;startSize=8;endSize=8;dashed=1;endFill=1;fillColor=#f8cecc;strokeColor=#b85450;" parent="1" source="-FrrrJ6dnkbftd-pf9Oq-40" target="-FrrrJ6dnkbftd-pf9Oq-68" edge="1">
          <mxGeometry relative="1" as="geometry" />
        </mxCell>
        <mxCell id="-FrrrJ6dnkbftd-pf9Oq-95" value="&amp;lt;includes&amp;gt;" style="edgeLabel;html=1;align=center;verticalAlign=middle;resizable=0;points=[];fontSize=12;" parent="-FrrrJ6dnkbftd-pf9Oq-79" vertex="1" connectable="0">
          <mxGeometry x="0.0108" relative="1" as="geometry">
            <mxPoint as="offset" />
          </mxGeometry>
        </mxCell>
        <mxCell id="-FrrrJ6dnkbftd-pf9Oq-40" value="&lt;span style=&quot;font-size: 11px;&quot;&gt;&lt;b&gt;Healthy Years&lt;/b&gt;&lt;/span&gt;&lt;br&gt;&lt;div style=&quot;font-size: 11px;&quot;&gt;&lt;font style=&quot;font-size: 11px;&quot;&gt;Parameter&lt;/font&gt;&lt;div&gt;&lt;font style=&quot;font-size: 11px;&quot;&gt;ausfüllen&lt;/font&gt;&lt;/div&gt;&lt;/div&gt;" style="ellipse;whiteSpace=wrap;html=1;align=center;newEdgeStyle={&quot;edgeStyle&quot;:&quot;entityRelationEdgeStyle&quot;,&quot;startArrow&quot;:&quot;none&quot;,&quot;endArrow&quot;:&quot;none&quot;,&quot;segment&quot;:10,&quot;curved&quot;:1,&quot;sourcePerimeterSpacing&quot;:0,&quot;targetPerimeterSpacing&quot;:0};treeFolding=1;treeMoving=1;fillColor=#ffe6cc;strokeColor=#d79b00;" parent="1" vertex="1">
          <mxGeometry x="915" y="378" width="116" height="70" as="geometry" />
        </mxCell>
        <mxCell id="-FrrrJ6dnkbftd-pf9Oq-55" style="edgeStyle=entityRelationEdgeStyle;curved=1;rounded=0;orthogonalLoop=1;jettySize=auto;html=1;startArrow=none;endArrow=classic;segment=10;sourcePerimeterSpacing=0;targetPerimeterSpacing=0;fontSize=12;startSize=8;endSize=8;dashed=1;endFill=1;fillColor=#f8cecc;strokeColor=#b85450;" parent="1" source="-FrrrJ6dnkbftd-pf9Oq-42" target="-FrrrJ6dnkbftd-pf9Oq-51" edge="1">
          <mxGeometry relative="1" as="geometry" />
        </mxCell>
        <mxCell id="-FrrrJ6dnkbftd-pf9Oq-97" value="&amp;lt;includes&amp;gt;" style="edgeLabel;html=1;align=center;verticalAlign=middle;resizable=0;points=[];fontSize=12;" parent="-FrrrJ6dnkbftd-pf9Oq-55" vertex="1" connectable="0">
          <mxGeometry x="-0.0014" y="2" relative="1" as="geometry">
            <mxPoint y="1" as="offset" />
          </mxGeometry>
        </mxCell>
        <mxCell id="-FrrrJ6dnkbftd-pf9Oq-80" style="edgeStyle=entityRelationEdgeStyle;curved=1;rounded=0;orthogonalLoop=1;jettySize=auto;html=1;startArrow=none;endArrow=classic;segment=10;sourcePerimeterSpacing=0;targetPerimeterSpacing=0;fontSize=12;startSize=8;endSize=8;dashed=1;endFill=1;fillColor=#f8cecc;strokeColor=#b85450;" parent="1" source="-FrrrJ6dnkbftd-pf9Oq-42" target="-FrrrJ6dnkbftd-pf9Oq-75" edge="1">
          <mxGeometry relative="1" as="geometry" />
        </mxCell>
        <mxCell id="-FrrrJ6dnkbftd-pf9Oq-98" value="&amp;lt;includes&amp;gt;" style="edgeLabel;html=1;align=center;verticalAlign=middle;resizable=0;points=[];fontSize=12;" parent="-FrrrJ6dnkbftd-pf9Oq-80" vertex="1" connectable="0">
          <mxGeometry x="-0.0108" y="1" relative="1" as="geometry">
            <mxPoint as="offset" />
          </mxGeometry>
        </mxCell>
        <mxCell id="-FrrrJ6dnkbftd-pf9Oq-81" style="edgeStyle=entityRelationEdgeStyle;curved=1;rounded=0;orthogonalLoop=1;jettySize=auto;html=1;startArrow=none;endArrow=classic;segment=10;sourcePerimeterSpacing=0;targetPerimeterSpacing=0;fontSize=12;startSize=8;endSize=8;endFill=1;dashed=1;fillColor=#f8cecc;strokeColor=#b85450;" parent="1" source="-FrrrJ6dnkbftd-pf9Oq-42" target="-FrrrJ6dnkbftd-pf9Oq-69" edge="1">
          <mxGeometry relative="1" as="geometry" />
        </mxCell>
        <mxCell id="-FrrrJ6dnkbftd-pf9Oq-99" value="&amp;lt;includes&amp;gt;" style="edgeLabel;html=1;align=center;verticalAlign=middle;resizable=0;points=[];fontSize=12;" parent="-FrrrJ6dnkbftd-pf9Oq-81" vertex="1" connectable="0">
          <mxGeometry x="-0.0036" relative="1" as="geometry">
            <mxPoint as="offset" />
          </mxGeometry>
        </mxCell>
        <mxCell id="-FrrrJ6dnkbftd-pf9Oq-42" value="&lt;font style=&quot;font-size: 11px;&quot;&gt;&lt;b&gt;Outlook&amp;nbsp;&lt;/b&gt;&lt;/font&gt;&lt;div style=&quot;font-size: 11px;&quot;&gt;&lt;font style=&quot;font-size: 11px;&quot;&gt;Parameter&lt;/font&gt;&lt;div&gt;&lt;font style=&quot;font-size: 11px;&quot;&gt;ausfüllen&lt;/font&gt;&lt;/div&gt;&lt;/div&gt;" style="ellipse;whiteSpace=wrap;html=1;align=center;newEdgeStyle={&quot;edgeStyle&quot;:&quot;entityRelationEdgeStyle&quot;,&quot;startArrow&quot;:&quot;none&quot;,&quot;endArrow&quot;:&quot;none&quot;,&quot;segment&quot;:10,&quot;curved&quot;:1,&quot;sourcePerimeterSpacing&quot;:0,&quot;targetPerimeterSpacing&quot;:0};treeFolding=1;treeMoving=1;fillColor=#ffe6cc;strokeColor=#d79b00;" parent="1" vertex="1">
          <mxGeometry x="915" y="550.5" width="116" height="70" as="geometry" />
        </mxCell>
        <mxCell id="-FrrrJ6dnkbftd-pf9Oq-44" value="&lt;div style=&quot;font-size: 11px;&quot;&gt;&lt;font style=&quot;font-size: 11px;&quot;&gt;Parameter zurücksetzen&lt;/font&gt;&lt;/div&gt;" style="ellipse;whiteSpace=wrap;html=1;align=center;newEdgeStyle={&quot;edgeStyle&quot;:&quot;entityRelationEdgeStyle&quot;,&quot;startArrow&quot;:&quot;none&quot;,&quot;endArrow&quot;:&quot;none&quot;,&quot;segment&quot;:10,&quot;curved&quot;:1,&quot;sourcePerimeterSpacing&quot;:0,&quot;targetPerimeterSpacing&quot;:0};treeFolding=1;treeMoving=1;fillColor=#fff2cc;strokeColor=#d6b656;" parent="1" vertex="1">
          <mxGeometry x="1176" y="218" width="90" height="50" as="geometry" />
        </mxCell>
        <mxCell id="-FrrrJ6dnkbftd-pf9Oq-49" value="&lt;div style=&quot;font-size: 11px;&quot;&gt;&lt;font style=&quot;font-size: 11px;&quot;&gt;Parameter zurücksetzen&lt;/font&gt;&lt;/div&gt;" style="ellipse;whiteSpace=wrap;html=1;align=center;newEdgeStyle={&quot;edgeStyle&quot;:&quot;entityRelationEdgeStyle&quot;,&quot;startArrow&quot;:&quot;none&quot;,&quot;endArrow&quot;:&quot;none&quot;,&quot;segment&quot;:10,&quot;curved&quot;:1,&quot;sourcePerimeterSpacing&quot;:0,&quot;targetPerimeterSpacing&quot;:0};treeFolding=1;treeMoving=1;fillColor=#fff2cc;strokeColor=#d6b656;" parent="1" vertex="1">
          <mxGeometry x="1176" y="388" width="90" height="50" as="geometry" />
        </mxCell>
        <mxCell id="-FrrrJ6dnkbftd-pf9Oq-51" value="&lt;div style=&quot;font-size: 11px;&quot;&gt;&lt;font style=&quot;font-size: 11px;&quot;&gt;Parameter zurücksetzen&lt;/font&gt;&lt;/div&gt;" style="ellipse;whiteSpace=wrap;html=1;align=center;newEdgeStyle={&quot;edgeStyle&quot;:&quot;entityRelationEdgeStyle&quot;,&quot;startArrow&quot;:&quot;none&quot;,&quot;endArrow&quot;:&quot;none&quot;,&quot;segment&quot;:10,&quot;curved&quot;:1,&quot;sourcePerimeterSpacing&quot;:0,&quot;targetPerimeterSpacing&quot;:0};treeFolding=1;treeMoving=1;fillColor=#fff2cc;strokeColor=#d6b656;" parent="1" vertex="1">
          <mxGeometry x="1176" y="560.5" width="90" height="50" as="geometry" />
        </mxCell>
        <mxCell id="-FrrrJ6dnkbftd-pf9Oq-60" style="edgeStyle=entityRelationEdgeStyle;curved=1;rounded=0;orthogonalLoop=1;jettySize=auto;html=1;startArrow=none;endArrow=classic;segment=10;sourcePerimeterSpacing=0;targetPerimeterSpacing=0;fontSize=12;startSize=8;endSize=8;dashed=1;endFill=1;fillColor=#f8cecc;strokeColor=#b85450;" parent="1" source="-FrrrJ6dnkbftd-pf9Oq-57" target="-FrrrJ6dnkbftd-pf9Oq-59" edge="1">
          <mxGeometry relative="1" as="geometry" />
        </mxCell>
        <mxCell id="-FrrrJ6dnkbftd-pf9Oq-101" value="&amp;lt;includes&amp;gt;" style="edgeLabel;html=1;align=center;verticalAlign=middle;resizable=0;points=[];fontSize=12;" parent="-FrrrJ6dnkbftd-pf9Oq-60" vertex="1" connectable="0">
          <mxGeometry x="-0.0428" relative="1" as="geometry">
            <mxPoint as="offset" />
          </mxGeometry>
        </mxCell>
        <mxCell id="-FrrrJ6dnkbftd-pf9Oq-82" style="edgeStyle=entityRelationEdgeStyle;curved=1;rounded=0;orthogonalLoop=1;jettySize=auto;html=1;startArrow=none;endArrow=classic;segment=10;sourcePerimeterSpacing=0;targetPerimeterSpacing=0;fontSize=12;startSize=8;endSize=8;dashed=1;endFill=1;fillColor=#f8cecc;strokeColor=#b85450;" parent="1" source="-FrrrJ6dnkbftd-pf9Oq-57" target="-FrrrJ6dnkbftd-pf9Oq-74" edge="1">
          <mxGeometry relative="1" as="geometry" />
        </mxCell>
        <mxCell id="-FrrrJ6dnkbftd-pf9Oq-100" value="&amp;lt;includes&amp;gt;" style="edgeLabel;html=1;align=center;verticalAlign=middle;resizable=0;points=[];fontSize=12;" parent="-FrrrJ6dnkbftd-pf9Oq-82" vertex="1" connectable="0">
          <mxGeometry x="-0.0036" y="2" relative="1" as="geometry">
            <mxPoint as="offset" />
          </mxGeometry>
        </mxCell>
        <mxCell id="-FrrrJ6dnkbftd-pf9Oq-83" style="edgeStyle=entityRelationEdgeStyle;curved=1;rounded=0;orthogonalLoop=1;jettySize=auto;html=1;startArrow=none;endArrow=classic;segment=10;sourcePerimeterSpacing=0;targetPerimeterSpacing=0;fontSize=12;startSize=8;endSize=8;dashed=1;endFill=1;fillColor=#f8cecc;strokeColor=#b85450;" parent="1" source="-FrrrJ6dnkbftd-pf9Oq-57" target="-FrrrJ6dnkbftd-pf9Oq-70" edge="1">
          <mxGeometry relative="1" as="geometry" />
        </mxCell>
        <mxCell id="-FrrrJ6dnkbftd-pf9Oq-102" value="&amp;lt;includes&amp;gt;" style="edgeLabel;html=1;align=center;verticalAlign=middle;resizable=0;points=[];fontSize=12;" parent="-FrrrJ6dnkbftd-pf9Oq-83" vertex="1" connectable="0">
          <mxGeometry x="0.0276" relative="1" as="geometry">
            <mxPoint as="offset" />
          </mxGeometry>
        </mxCell>
        <mxCell id="-FrrrJ6dnkbftd-pf9Oq-57" value="&lt;div style=&quot;font-size: 11px;&quot;&gt;&lt;b&gt;mehr/ weniger&lt;/b&gt;&lt;/div&gt;&lt;div style=&quot;font-size: 11px;&quot;&gt;Anzeige&lt;/div&gt;" style="ellipse;whiteSpace=wrap;html=1;align=center;newEdgeStyle={&quot;edgeStyle&quot;:&quot;entityRelationEdgeStyle&quot;,&quot;startArrow&quot;:&quot;none&quot;,&quot;endArrow&quot;:&quot;none&quot;,&quot;segment&quot;:10,&quot;curved&quot;:1,&quot;sourcePerimeterSpacing&quot;:0,&quot;targetPerimeterSpacing&quot;:0};treeFolding=1;treeMoving=1;fillColor=#ffe6cc;strokeColor=#d79b00;" parent="1" vertex="1">
          <mxGeometry x="915" y="738" width="116" height="70" as="geometry" />
        </mxCell>
        <mxCell id="-FrrrJ6dnkbftd-pf9Oq-59" value="&lt;div style=&quot;font-size: 11px;&quot;&gt;öffnet weitere Seiten&lt;/div&gt;" style="ellipse;whiteSpace=wrap;html=1;align=center;newEdgeStyle={&quot;edgeStyle&quot;:&quot;entityRelationEdgeStyle&quot;,&quot;startArrow&quot;:&quot;none&quot;,&quot;endArrow&quot;:&quot;none&quot;,&quot;segment&quot;:10,&quot;curved&quot;:1,&quot;sourcePerimeterSpacing&quot;:0,&quot;targetPerimeterSpacing&quot;:0};treeFolding=1;treeMoving=1;fillColor=#fff2cc;strokeColor=#d6b656;" parent="1" vertex="1">
          <mxGeometry x="1176" y="748" width="90" height="50" as="geometry" />
        </mxCell>
        <mxCell id="-FrrrJ6dnkbftd-pf9Oq-61" value="&lt;span style=&quot;font-size: 11px;&quot;&gt;credits&lt;/span&gt;" style="ellipse;whiteSpace=wrap;html=1;align=center;newEdgeStyle={&quot;edgeStyle&quot;:&quot;entityRelationEdgeStyle&quot;,&quot;startArrow&quot;:&quot;none&quot;,&quot;endArrow&quot;:&quot;none&quot;,&quot;segment&quot;:10,&quot;curved&quot;:1,&quot;sourcePerimeterSpacing&quot;:0,&quot;targetPerimeterSpacing&quot;:0};treeFolding=1;treeMoving=1;fillColor=#fff2cc;strokeColor=#d6b656;" parent="1" vertex="1">
          <mxGeometry x="415" y="338" width="70" height="30" as="geometry" />
        </mxCell>
        <mxCell id="-FrrrJ6dnkbftd-pf9Oq-63" value="&lt;span style=&quot;font-size: 11px;&quot;&gt;Full Screen&lt;/span&gt;" style="ellipse;whiteSpace=wrap;html=1;align=center;newEdgeStyle={&quot;edgeStyle&quot;:&quot;entityRelationEdgeStyle&quot;,&quot;startArrow&quot;:&quot;none&quot;,&quot;endArrow&quot;:&quot;none&quot;,&quot;segment&quot;:10,&quot;curved&quot;:1,&quot;sourcePerimeterSpacing&quot;:0,&quot;targetPerimeterSpacing&quot;:0};treeFolding=1;treeMoving=1;fillColor=#fff2cc;strokeColor=#d6b656;" parent="1" vertex="1">
          <mxGeometry x="415" y="208" width="70" height="30" as="geometry" />
        </mxCell>
        <mxCell id="-FrrrJ6dnkbftd-pf9Oq-68" value="&lt;span style=&quot;font-size: 11px;&quot;&gt;credits&lt;/span&gt;" style="ellipse;whiteSpace=wrap;html=1;align=center;newEdgeStyle={&quot;edgeStyle&quot;:&quot;entityRelationEdgeStyle&quot;,&quot;startArrow&quot;:&quot;none&quot;,&quot;endArrow&quot;:&quot;none&quot;,&quot;segment&quot;:10,&quot;curved&quot;:1,&quot;sourcePerimeterSpacing&quot;:0,&quot;targetPerimeterSpacing&quot;:0};treeFolding=1;treeMoving=1;fillColor=#fff2cc;strokeColor=#d6b656;" parent="1" vertex="1">
          <mxGeometry x="1176" y="448" width="70" height="30" as="geometry" />
        </mxCell>
        <mxCell id="-FrrrJ6dnkbftd-pf9Oq-69" value="&lt;span style=&quot;font-size: 11px;&quot;&gt;credits&lt;/span&gt;" style="ellipse;whiteSpace=wrap;html=1;align=center;newEdgeStyle={&quot;edgeStyle&quot;:&quot;entityRelationEdgeStyle&quot;,&quot;startArrow&quot;:&quot;none&quot;,&quot;endArrow&quot;:&quot;none&quot;,&quot;segment&quot;:10,&quot;curved&quot;:1,&quot;sourcePerimeterSpacing&quot;:0,&quot;targetPerimeterSpacing&quot;:0};treeFolding=1;treeMoving=1;fillColor=#fff2cc;strokeColor=#d6b656;" parent="1" vertex="1">
          <mxGeometry x="1176" y="620.5" width="70" height="30" as="geometry" />
        </mxCell>
        <mxCell id="-FrrrJ6dnkbftd-pf9Oq-70" value="&lt;span style=&quot;font-size: 11px;&quot;&gt;credits&lt;/span&gt;" style="ellipse;whiteSpace=wrap;html=1;align=center;newEdgeStyle={&quot;edgeStyle&quot;:&quot;entityRelationEdgeStyle&quot;,&quot;startArrow&quot;:&quot;none&quot;,&quot;endArrow&quot;:&quot;none&quot;,&quot;segment&quot;:10,&quot;curved&quot;:1,&quot;sourcePerimeterSpacing&quot;:0,&quot;targetPerimeterSpacing&quot;:0};treeFolding=1;treeMoving=1;fillColor=#fff2cc;strokeColor=#d6b656;" parent="1" vertex="1">
          <mxGeometry x="1176" y="808" width="70" height="30" as="geometry" />
        </mxCell>
        <mxCell id="-FrrrJ6dnkbftd-pf9Oq-73" value="&lt;span style=&quot;font-size: 11px;&quot;&gt;credits&lt;/span&gt;" style="ellipse;whiteSpace=wrap;html=1;align=center;newEdgeStyle={&quot;edgeStyle&quot;:&quot;entityRelationEdgeStyle&quot;,&quot;startArrow&quot;:&quot;none&quot;,&quot;endArrow&quot;:&quot;none&quot;,&quot;segment&quot;:10,&quot;curved&quot;:1,&quot;sourcePerimeterSpacing&quot;:0,&quot;targetPerimeterSpacing&quot;:0};treeFolding=1;treeMoving=1;fillColor=#fff2cc;strokeColor=#d6b656;" parent="1" vertex="1">
          <mxGeometry x="1176" y="278" width="70" height="30" as="geometry" />
        </mxCell>
        <mxCell id="-FrrrJ6dnkbftd-pf9Oq-74" value="&lt;span style=&quot;font-size: 11px;&quot;&gt;Full Screen&lt;/span&gt;" style="ellipse;whiteSpace=wrap;html=1;align=center;newEdgeStyle={&quot;edgeStyle&quot;:&quot;entityRelationEdgeStyle&quot;,&quot;startArrow&quot;:&quot;none&quot;,&quot;endArrow&quot;:&quot;none&quot;,&quot;segment&quot;:10,&quot;curved&quot;:1,&quot;sourcePerimeterSpacing&quot;:0,&quot;targetPerimeterSpacing&quot;:0};treeFolding=1;treeMoving=1;fillColor=#fff2cc;strokeColor=#d6b656;" parent="1" vertex="1">
          <mxGeometry x="1176" y="708" width="70" height="30" as="geometry" />
        </mxCell>
        <mxCell id="-FrrrJ6dnkbftd-pf9Oq-75" value="&lt;span style=&quot;font-size: 11px;&quot;&gt;Full Screen&lt;/span&gt;" style="ellipse;whiteSpace=wrap;html=1;align=center;newEdgeStyle={&quot;edgeStyle&quot;:&quot;entityRelationEdgeStyle&quot;,&quot;startArrow&quot;:&quot;none&quot;,&quot;endArrow&quot;:&quot;none&quot;,&quot;segment&quot;:10,&quot;curved&quot;:1,&quot;sourcePerimeterSpacing&quot;:0,&quot;targetPerimeterSpacing&quot;:0};treeFolding=1;treeMoving=1;fillColor=#fff2cc;strokeColor=#d6b656;" parent="1" vertex="1">
          <mxGeometry x="1176" y="520.5" width="70" height="30" as="geometry" />
        </mxCell>
        <mxCell id="-FrrrJ6dnkbftd-pf9Oq-76" value="&lt;span style=&quot;font-size: 11px;&quot;&gt;Full Screen&lt;/span&gt;" style="ellipse;whiteSpace=wrap;html=1;align=center;newEdgeStyle={&quot;edgeStyle&quot;:&quot;entityRelationEdgeStyle&quot;,&quot;startArrow&quot;:&quot;none&quot;,&quot;endArrow&quot;:&quot;none&quot;,&quot;segment&quot;:10,&quot;curved&quot;:1,&quot;sourcePerimeterSpacing&quot;:0,&quot;targetPerimeterSpacing&quot;:0};treeFolding=1;treeMoving=1;fillColor=#fff2cc;strokeColor=#d6b656;" parent="1" vertex="1">
          <mxGeometry x="1176" y="348" width="70" height="30" as="geometry" />
        </mxCell>
        <mxCell id="-FrrrJ6dnkbftd-pf9Oq-77" value="&lt;span style=&quot;font-size: 11px;&quot;&gt;Full Screen&lt;/span&gt;" style="ellipse;whiteSpace=wrap;html=1;align=center;newEdgeStyle={&quot;edgeStyle&quot;:&quot;entityRelationEdgeStyle&quot;,&quot;startArrow&quot;:&quot;none&quot;,&quot;endArrow&quot;:&quot;none&quot;,&quot;segment&quot;:10,&quot;curved&quot;:1,&quot;sourcePerimeterSpacing&quot;:0,&quot;targetPerimeterSpacing&quot;:0};treeFolding=1;treeMoving=1;fillColor=#fff2cc;strokeColor=#d6b656;" parent="1" vertex="1">
          <mxGeometry x="1176" y="178" width="70" height="30" as="geometry" />
        </mxCell>
        <mxCell id="-FrrrJ6dnkbftd-pf9Oq-105" value="&lt;font style=&quot;font-size: 11px;&quot;&gt;&lt;b&gt;BMI&lt;/b&gt;&lt;/font&gt;&lt;div&gt;&lt;hr&gt;&lt;div style=&quot;font-size: 11px;&quot;&gt;&lt;font style=&quot;font-size: 11px;&quot;&gt;Parameter&lt;/font&gt;&lt;div&gt;&lt;font style=&quot;font-size: 11px;&quot;&gt;&amp;gt;=20&lt;/font&gt;&lt;/div&gt;&lt;/div&gt;&lt;/div&gt;" style="ellipse;whiteSpace=wrap;html=1;align=center;newEdgeStyle={&quot;edgeStyle&quot;:&quot;entityRelationEdgeStyle&quot;,&quot;startArrow&quot;:&quot;none&quot;,&quot;endArrow&quot;:&quot;none&quot;,&quot;segment&quot;:10,&quot;curved&quot;:1,&quot;sourcePerimeterSpacing&quot;:0,&quot;targetPerimeterSpacing&quot;:0};treeFolding=1;treeMoving=1;fillColor=#ffe6cc;strokeColor=#d79b00;" parent="1" vertex="1">
          <mxGeometry x="705" y="768" width="116" height="70" as="geometry" />
        </mxCell>
        <mxCell id="-FrrrJ6dnkbftd-pf9Oq-110" value="Laden" style="ellipse;whiteSpace=wrap;html=1;align=center;newEdgeStyle={&quot;edgeStyle&quot;:&quot;entityRelationEdgeStyle&quot;,&quot;startArrow&quot;:&quot;none&quot;,&quot;endArrow&quot;:&quot;none&quot;,&quot;segment&quot;:10,&quot;curved&quot;:1,&quot;sourcePerimeterSpacing&quot;:0,&quot;targetPerimeterSpacing&quot;:0};treeFolding=1;treeMoving=1;fillColor=#fff2cc;strokeColor=#d6b656;" parent="1" vertex="1">
          <mxGeometry x="435" y="768" width="94" height="45" as="geometry" />
        </mxCell>
        <mxCell id="kuQIO71cQD9eVKHbOIEv-5" value="" style="edgeStyle=entityRelationEdgeStyle;rounded=0;orthogonalLoop=1;jettySize=auto;html=1;startArrow=none;endArrow=none;segment=10;curved=1;sourcePerimeterSpacing=0;targetPerimeterSpacing=0;" edge="1" parent="1" source="kuQIO71cQD9eVKHbOIEv-3" target="kuQIO71cQD9eVKHbOIEv-4">
          <mxGeometry relative="1" as="geometry" />
        </mxCell>
        <mxCell id="kuQIO71cQD9eVKHbOIEv-3" value="&lt;font style=&quot;font-size: 11px;&quot;&gt;&lt;b&gt;Profil&amp;nbsp;&lt;/b&gt;&lt;/font&gt;&lt;div style=&quot;font-size: 11px;&quot;&gt;&lt;font style=&quot;font-size: 11px;&quot;&gt;Parameter&lt;/font&gt;&lt;div&gt;&lt;font style=&quot;font-size: 11px;&quot;&gt;ausfüllen&lt;/font&gt;&lt;/div&gt;&lt;/div&gt;" style="ellipse;whiteSpace=wrap;html=1;align=center;newEdgeStyle={&quot;edgeStyle&quot;:&quot;entityRelationEdgeStyle&quot;,&quot;startArrow&quot;:&quot;none&quot;,&quot;endArrow&quot;:&quot;none&quot;,&quot;segment&quot;:10,&quot;curved&quot;:1,&quot;sourcePerimeterSpacing&quot;:0,&quot;targetPerimeterSpacing&quot;:0};treeFolding=1;treeMoving=1;fillColor=#ffe6cc;strokeColor=#d79b00;" vertex="1" parent="1">
          <mxGeometry x="-520" y="413" width="116" height="70" as="geometry" />
        </mxCell>
        <mxCell id="kuQIO71cQD9eVKHbOIEv-6" style="edgeStyle=entityRelationEdgeStyle;rounded=0;orthogonalLoop=1;jettySize=auto;html=1;startArrow=none;endArrow=classic;segment=10;curved=1;sourcePerimeterSpacing=0;targetPerimeterSpacing=0;endFill=1;dashed=1;" edge="1" parent="1" source="kuQIO71cQD9eVKHbOIEv-4" target="NwBf-p2mOLdfekpfjntF-17">
          <mxGeometry relative="1" as="geometry" />
        </mxCell>
        <mxCell id="kuQIO71cQD9eVKHbOIEv-13" style="edgeStyle=entityRelationEdgeStyle;rounded=0;orthogonalLoop=1;jettySize=auto;html=1;startArrow=none;endArrow=classic;segment=10;curved=1;sourcePerimeterSpacing=0;targetPerimeterSpacing=0;dashed=1;endFill=1;" edge="1" parent="1" source="kuQIO71cQD9eVKHbOIEv-4" target="kuQIO71cQD9eVKHbOIEv-9">
          <mxGeometry relative="1" as="geometry" />
        </mxCell>
        <mxCell id="kuQIO71cQD9eVKHbOIEv-16" value="&lt;span style=&quot;font-size: 12px;&quot;&gt;&amp;lt;includes&amp;gt;&lt;/span&gt;" style="edgeLabel;html=1;align=center;verticalAlign=middle;resizable=0;points=[];" vertex="1" connectable="0" parent="kuQIO71cQD9eVKHbOIEv-13">
          <mxGeometry x="0.1043" y="-1" relative="1" as="geometry">
            <mxPoint y="-1" as="offset" />
          </mxGeometry>
        </mxCell>
        <mxCell id="kuQIO71cQD9eVKHbOIEv-14" style="edgeStyle=entityRelationEdgeStyle;rounded=0;orthogonalLoop=1;jettySize=auto;html=1;startArrow=none;endArrow=classic;segment=10;curved=1;sourcePerimeterSpacing=0;targetPerimeterSpacing=0;dashed=1;endFill=1;" edge="1" parent="1" source="kuQIO71cQD9eVKHbOIEv-4" target="kuQIO71cQD9eVKHbOIEv-11">
          <mxGeometry relative="1" as="geometry">
            <Array as="points">
              <mxPoint x="20" y="480" />
            </Array>
          </mxGeometry>
        </mxCell>
        <mxCell id="kuQIO71cQD9eVKHbOIEv-15" value="&lt;span style=&quot;font-size: 12px;&quot;&gt;&amp;lt;includes&amp;gt;&lt;/span&gt;" style="edgeLabel;html=1;align=center;verticalAlign=middle;resizable=0;points=[];" vertex="1" connectable="0" parent="kuQIO71cQD9eVKHbOIEv-14">
          <mxGeometry x="0.1095" y="-5" relative="1" as="geometry">
            <mxPoint y="-1" as="offset" />
          </mxGeometry>
        </mxCell>
        <mxCell id="kuQIO71cQD9eVKHbOIEv-4" value="&lt;span style=&quot;font-size: 11px;&quot;&gt;&lt;b&gt;Benutzer&lt;/b&gt;&lt;/span&gt;&lt;br&gt;&lt;div style=&quot;font-size: 11px;&quot;&gt;Anmelden&lt;/div&gt;" style="ellipse;whiteSpace=wrap;html=1;align=center;newEdgeStyle={&quot;edgeStyle&quot;:&quot;entityRelationEdgeStyle&quot;,&quot;startArrow&quot;:&quot;none&quot;,&quot;endArrow&quot;:&quot;none&quot;,&quot;segment&quot;:10,&quot;curved&quot;:1,&quot;sourcePerimeterSpacing&quot;:0,&quot;targetPerimeterSpacing&quot;:0};treeFolding=1;treeMoving=1;fillColor=#ffe6cc;strokeColor=#d79b00;" vertex="1" parent="1">
          <mxGeometry x="100" y="413" width="116" height="70" as="geometry" />
        </mxCell>
        <mxCell id="kuQIO71cQD9eVKHbOIEv-9" value="&lt;span style=&quot;font-size: 11px;&quot;&gt;&lt;b&gt;Benutzerpasswort&lt;/b&gt;&lt;/span&gt;&lt;br&gt;&lt;div style=&quot;font-size: 11px;&quot;&gt;&lt;hr&gt;&lt;div style=&quot;font-size: 11px;&quot;&gt;&lt;b&gt;extension point&lt;/b&gt;&lt;/div&gt;&lt;div style=&quot;font-size: 11px;&quot;&gt;&lt;span style=&quot;text-align: left;&quot;&gt;Benutzerpasswort&lt;/span&gt;&lt;/div&gt;&lt;div style=&quot;font-size: 11px;&quot;&gt;&lt;span style=&quot;text-align: left;&quot;&gt;&amp;nbsp;==&lt;/span&gt;&lt;/div&gt;&lt;div style=&quot;font-size: 11px;&quot;&gt;&lt;span style=&quot;text-align: left; background-color: initial;&quot;&gt;Registrierungspasswort&lt;/span&gt;&lt;/div&gt;&lt;/div&gt;" style="ellipse;whiteSpace=wrap;html=1;align=center;newEdgeStyle={&quot;edgeStyle&quot;:&quot;entityRelationEdgeStyle&quot;,&quot;startArrow&quot;:&quot;none&quot;,&quot;endArrow&quot;:&quot;none&quot;,&quot;segment&quot;:10,&quot;curved&quot;:1,&quot;sourcePerimeterSpacing&quot;:0,&quot;targetPerimeterSpacing&quot;:0};treeFolding=1;treeMoving=1;fillColor=#ffe6cc;strokeColor=#d79b00;" vertex="1" parent="1">
          <mxGeometry x="190" y="943" width="160" height="138.5" as="geometry" />
        </mxCell>
        <mxCell id="kuQIO71cQD9eVKHbOIEv-11" value="&lt;span style=&quot;font-size: 11px;&quot;&gt;&lt;b&gt;Benutzername&lt;/b&gt;&lt;/span&gt;&lt;br&gt;&lt;div style=&quot;font-size: 11px;&quot;&gt;&lt;hr&gt;&lt;div style=&quot;font-size: 11px;&quot;&gt;&lt;b&gt;extension point&lt;/b&gt;&lt;/div&gt;&lt;div style=&quot;font-size: 11px;&quot;&gt;&lt;div&gt;&lt;span style=&quot;text-align: left;&quot;&gt;Benutzername&lt;/span&gt;&lt;/div&gt;&lt;div&gt;&lt;span style=&quot;text-align: left;&quot;&gt;&amp;nbsp;==&lt;/span&gt;&lt;/div&gt;&lt;div&gt;&lt;span style=&quot;text-align: left; background-color: initial;&quot;&gt;Registrierungsname&lt;/span&gt;&lt;/div&gt;&lt;/div&gt;&lt;/div&gt;" style="ellipse;whiteSpace=wrap;html=1;align=center;newEdgeStyle={&quot;edgeStyle&quot;:&quot;entityRelationEdgeStyle&quot;,&quot;startArrow&quot;:&quot;none&quot;,&quot;endArrow&quot;:&quot;none&quot;,&quot;segment&quot;:10,&quot;curved&quot;:1,&quot;sourcePerimeterSpacing&quot;:0,&quot;targetPerimeterSpacing&quot;:0};treeFolding=1;treeMoving=1;fillColor=#ffe6cc;strokeColor=#d79b00;" vertex="1" parent="1">
          <mxGeometry y="572" width="150" height="127" as="geometry" />
        </mxCell>
        <mxCell id="kuQIO71cQD9eVKHbOIEv-18" style="rounded=0;orthogonalLoop=1;jettySize=auto;html=1;endArrow=none;endFill=0;dashed=1;exitX=0;exitY=0;exitDx=257.25;exitDy=66.75;exitPerimeter=0;" edge="1" parent="1" source="kuQIO71cQD9eVKHbOIEv-17">
          <mxGeometry relative="1" as="geometry">
            <mxPoint x="160" y="940" as="targetPoint" />
          </mxGeometry>
        </mxCell>
        <mxCell id="kuQIO71cQD9eVKHbOIEv-20" value="&lt;span style=&quot;color: rgba(0, 0, 0, 0); font-family: monospace; font-size: 0px; text-align: start; background-color: rgb(251, 251, 251);&quot;&gt;%3CmxGraphModel%3E%3Croot%3E%3CmxCell%20id%3D%220%22%2F%3E%3CmxCell%20id%3D%221%22%20parent%3D%220%22%2F%3E%3CmxCell%20id%3D%222%22%20value%3D%22%22%20style%3D%22edgeStyle%3DentityRelationEdgeStyle%3Bcurved%3D1%3Brounded%3D0%3BorthogonalLoop%3D1%3BjettySize%3Dauto%3Bhtml%3D1%3BstartArrow%3DopenThin%3BendArrow%3Dnone%3Bsegment%3D10%3BsourcePerimeterSpacing%3D0%3BtargetPerimeterSpacing%3D0%3BfontSize%3D12%3BstartSize%3D8%3BendSize%3D8%3Bdashed%3D1%3BstartFill%3D0%3BfillColor%3D%23f8cecc%3BstrokeColor%3D%23b85450%3B%22%20edge%3D%221%22%20parent%3D%221%22%3E%3CmxGeometry%20relative%3D%221%22%20as%3D%22geometry%22%3E%3CmxPoint%20x%3D%22595%22%20y%3D%221024%22%20as%3D%22sourcePoint%22%2F%3E%3CmxPoint%20x%3D%22735%22%20y%3D%22932%22%20as%3D%22targetPoint%22%2F%3E%3C%2FmxGeometry%3E%3C%2FmxCell%3E%3CmxCell%20id%3D%223%22%20value%3D%22%26amp%3Blt%3Bextends%26amp%3Bgt%3B%22%20style%3D%22edgeLabel%3Bhtml%3D1%3Balign%3Dcenter%3BverticalAlign%3Dmiddle%3Bresizable%3D0%3Bpoints%3D%5B%5D%3BfontSize%3D12%3B%22%20vertex%3D%221%22%20connectable%3D%220%22%20parent%3D%222%22%3E%3CmxGeometry%20x%3D%220.1068%22%20y%3D%22-1%22%20relative%3D%221%22%20as%3D%22geometry%22%3E%3CmxPoint%20x%3D%22-1%22%20as%3D%22offset%22%2F%3E%3C%2FmxGeometry%3E%3C%2FmxCell%3E%3C%2Froot%3E%3C%2FmxGraphModel%3E&lt;/span&gt;" style="edgeLabel;html=1;align=center;verticalAlign=middle;resizable=0;points=[];" vertex="1" connectable="0" parent="kuQIO71cQD9eVKHbOIEv-18">
          <mxGeometry x="-0.0138" y="2" relative="1" as="geometry">
            <mxPoint as="offset" />
          </mxGeometry>
        </mxCell>
        <mxCell id="kuQIO71cQD9eVKHbOIEv-19" style="rounded=0;orthogonalLoop=1;jettySize=auto;html=1;endArrow=none;endFill=0;dashed=1;exitX=0.5;exitY=0;exitDx=0;exitDy=0;exitPerimeter=0;" edge="1" parent="1" source="kuQIO71cQD9eVKHbOIEv-17">
          <mxGeometry relative="1" as="geometry">
            <mxPoint x="160" y="720" as="targetPoint" />
          </mxGeometry>
        </mxCell>
        <mxCell id="kuQIO71cQD9eVKHbOIEv-17" value="&lt;b&gt;Condition&lt;/b&gt;&lt;div&gt;Benutzer muss gleiche Anmeldedaten&amp;nbsp;&lt;/div&gt;&lt;div&gt;eingeben wie bei der Registrierung&lt;/div&gt;&lt;div&gt;&lt;b&gt;extension point&lt;/b&gt;&lt;/div&gt;&lt;div&gt;Benutzername ==&amp;nbsp;&lt;span style=&quot;background-color: initial;&quot;&gt;Registrierungsname&lt;/span&gt;&lt;/div&gt;&lt;div&gt;&lt;span style=&quot;background-color: initial;&quot;&gt;Benutzerpasswort ==&amp;nbsp;&lt;/span&gt;&lt;span style=&quot;background-color: initial;&quot;&gt;Registrierungspasswort&lt;/span&gt;&lt;/div&gt;" style="shape=note;whiteSpace=wrap;html=1;backgroundOutline=1;darkOpacity=0.05;align=left;fillColor=#ffbf00;strokeColor=#d6b656;" vertex="1" parent="1">
          <mxGeometry x="-257" y="952.75" width="257.25" height="103.5" as="geometry" />
        </mxCell>
        <mxCell id="kuQIO71cQD9eVKHbOIEv-26" style="edgeStyle=entityRelationEdgeStyle;rounded=0;orthogonalLoop=1;jettySize=auto;html=1;startArrow=none;endArrow=classic;segment=10;curved=1;sourcePerimeterSpacing=0;targetPerimeterSpacing=0;dashed=1;endFill=1;exitX=0.5;exitY=1;exitDx=0;exitDy=0;" edge="1" parent="1" source="kuQIO71cQD9eVKHbOIEv-25" target="kuQIO71cQD9eVKHbOIEv-9">
          <mxGeometry relative="1" as="geometry" />
        </mxCell>
        <mxCell id="kuQIO71cQD9eVKHbOIEv-30" value="&lt;span style=&quot;font-size: 12px;&quot;&gt;&amp;lt;extends&amp;gt;&lt;/span&gt;" style="edgeLabel;html=1;align=center;verticalAlign=middle;resizable=0;points=[];" vertex="1" connectable="0" parent="kuQIO71cQD9eVKHbOIEv-26">
          <mxGeometry x="-0.0094" y="1" relative="1" as="geometry">
            <mxPoint x="-1" as="offset" />
          </mxGeometry>
        </mxCell>
        <mxCell id="kuQIO71cQD9eVKHbOIEv-27" style="edgeStyle=entityRelationEdgeStyle;rounded=0;orthogonalLoop=1;jettySize=auto;html=1;startArrow=none;endArrow=classic;segment=10;curved=1;sourcePerimeterSpacing=0;targetPerimeterSpacing=0;endFill=1;dashed=1;exitX=0.5;exitY=0;exitDx=0;exitDy=0;" edge="1" parent="1" source="kuQIO71cQD9eVKHbOIEv-25" target="kuQIO71cQD9eVKHbOIEv-11">
          <mxGeometry relative="1" as="geometry" />
        </mxCell>
        <mxCell id="kuQIO71cQD9eVKHbOIEv-29" value="&lt;span style=&quot;font-size: 12px;&quot;&gt;&amp;lt;extends&amp;gt;&lt;/span&gt;" style="edgeLabel;html=1;align=center;verticalAlign=middle;resizable=0;points=[];" vertex="1" connectable="0" parent="kuQIO71cQD9eVKHbOIEv-27">
          <mxGeometry x="-0.0105" relative="1" as="geometry">
            <mxPoint as="offset" />
          </mxGeometry>
        </mxCell>
        <mxCell id="kuQIO71cQD9eVKHbOIEv-25" value="Tab-Control&lt;div&gt;nächste Seite&lt;br&gt;&lt;div&gt;&lt;span style=&quot;font-size: 11px;&quot;&gt;sperren!&lt;/span&gt;&lt;/div&gt;&lt;/div&gt;" style="ellipse;whiteSpace=wrap;html=1;align=center;newEdgeStyle={&quot;edgeStyle&quot;:&quot;entityRelationEdgeStyle&quot;,&quot;startArrow&quot;:&quot;none&quot;,&quot;endArrow&quot;:&quot;none&quot;,&quot;segment&quot;:10,&quot;curved&quot;:1,&quot;sourcePerimeterSpacing&quot;:0,&quot;targetPerimeterSpacing&quot;:0};treeFolding=1;treeMoving=1;fillColor=#fff2cc;strokeColor=#d6b656;" vertex="1" parent="1">
          <mxGeometry x="80" y="788" width="110" height="70" as="geometry" />
        </mxCell>
        <mxCell id="kuQIO71cQD9eVKHbOIEv-31" style="edgeStyle=orthogonalEdgeStyle;rounded=0;orthogonalLoop=1;jettySize=auto;html=1;" edge="1" parent="1" source="NwBf-p2mOLdfekpfjntF-3" target="kuQIO71cQD9eVKHbOIEv-3">
          <mxGeometry relative="1" as="geometry" />
        </mxCell>
      </root>
    </mxGraphModel>
  </diagram>
</mxfile>
